<svg height="512" viewBox="0 0 24 24" width="512" xmlns="http://www.w3.org/2000/svg"><path d="M12 0c6.615 0 12 5.383 12 12 0 6.615-5.385 12-12 12-6.617 0-12-5.385-12-12C0 5.383 5.383 0 12 0z" fill="#c2185b"/><path d="M18.562 4.081V4.08a10.27 10.27 0 00-8.664-2.15 48.663 48.663 0 013.379 5.519 24.239 24.239 0 005.285-3.368zm-3.287 7.75v-.001a19.168 19.168 0 016.994-.121 10.228 10.228 0 00-2.486-6.418 26.074 26.074 0 01-5.766 3.682c.452.939.87 1.891 1.258 2.858zm-3.597-3.734a47.023 47.023 0 00-3.501-5.641 10.296 10.296 0 00-6.191 7.225 24.262 24.262 0 009.692-1.584zm1.927 4.16a44.848 44.848 0 00-1.159-2.607c-3.36 1.309-6.9 1.941-10.701 1.736-.157 2.81.753 5.295 2.393 7.24a19.283 19.283 0 019.467-6.369zm2.3 1.196v.001a48.712 48.712 0 011.929 7.013 10.27 10.27 0 004.342-7.042 17.475 17.475 0 00-6.271.028zM5.354 19.845h.001a10.234 10.234 0 0010.907 1.507 46.624 46.624 0 00-2.042-7.501 17.56 17.56 0 00-8.866 5.994z" fill="#ec407a"/></svg>